<svg width="177" height="40" viewBox="0 0 177 40" fill="none" xmlns="http://www.w3.org/2000/svg">
<path fill-rule="evenodd" clip-rule="evenodd" d="M22.5975 4.567L25.5965 0L34.0987 4.317L31.1009 8.883C30.5743 9.684 31.3624 10.658 32.3951 10.483L38.1405 9.508L40 17.985L34.2545 18.959C24.9608 20.535 17.8653 11.775 22.5975 4.567Z" fill="#3A724F"/>
<path fill-rule="evenodd" clip-rule="evenodd" d="M17.4025 35.4329L14.4035 39.9999L5.90014 35.6839L8.89911 31.1169C9.42567 30.3159 8.63754 29.3419 7.60377 29.5169L1.85943 30.4909L0 22.0149L5.74547 21.0409C15.0392 19.4649 22.1335 28.2249 17.4025 35.4329Z" fill="#DC8E43"/>
<path fill-rule="evenodd" clip-rule="evenodd" d="M17.6617 4.567L14.6638 0L6.16048 4.317L9.15945 8.883C9.68487 9.684 8.89788 10.658 7.8641 10.483L2.11863 9.508L0.261475 17.985L6.00581 18.959C15.3007 20.535 22.3961 11.775 17.6628 4.567H17.6617Z" fill="#14424C"/>
<path fill-rule="evenodd" clip-rule="evenodd" d="M22.3471 35.4329L25.3438 39.9999L33.8472 35.6839L30.8482 31.1169C30.3228 30.3159 31.1098 29.3419 32.1435 29.5169L37.8879 30.4909L39.7473 22.0149L34.0018 21.0409C24.7081 19.4649 17.6138 28.2249 22.3449 35.4329H22.3471Z" fill="#C85D1B"/>
<text x="50" y="32" font-family="'Poppins', sans-serif" font-weight="bold" font-size="28" fill="#170C36">MyTutor</text>
</svg>
